<svg xmlns="http://www.w3.org/2000/svg" xmlns:xlink="http://www.w3.org/1999/xlink" width="500" zoomAndPan="magnify" viewBox="0 0 375 374.999991" height="500" preserveAspectRatio="xMidYMid meet" version="1.0"><defs><clipPath id="9cf4ab800f"><path d="M 17.402344 100 L 137 100 L 137 275 L 17.402344 275 Z M 17.402344 100 " clip-rule="nonzero"/></clipPath><clipPath id="d81031318a"><path d="M 238 100 L 357.902344 100 L 357.902344 275 L 238 275 Z M 238 100 " clip-rule="nonzero"/></clipPath><clipPath id="0f9a759fc1"><path d="M 128 55.441406 L 246 55.441406 L 246 319.441406 L 128 319.441406 Z M 128 55.441406 " clip-rule="nonzero"/></clipPath></defs><path fill="#03fa6e" d="M 124.730469 270.773438 C 122.851562 270.773438 121 270.140625 119.519531 268.964844 L 24.382812 194.113281 C 22.335938 192.503906 21.164062 190.09375 21.164062 187.496094 C 21.164062 184.898438 22.335938 182.484375 24.375 180.863281 L 119.519531 106.023438 C 121 104.847656 122.851562 104.214844 124.730469 104.214844 C 127.328125 104.214844 129.753906 105.378906 131.347656 107.429688 C 132.742188 109.195312 133.371094 111.40625 133.097656 113.632812 C 132.839844 115.871094 131.707031 117.867188 129.941406 119.257812 L 43.230469 187.496094 L 129.941406 255.71875 C 131.707031 257.125 132.839844 259.117188 133.097656 261.34375 C 133.371094 263.582031 132.742188 265.777344 131.347656 267.558594 C 129.753906 269.597656 127.328125 270.773438 124.730469 270.773438 " fill-opacity="1" fill-rule="nonzero"/><g clip-path="url(#9cf4ab800f)"><path fill="#03fa6e" d="M 124.730469 100.628906 C 122.046875 100.628906 119.421875 101.53125 117.3125 103.195312 L 22.160156 178.050781 C 19.238281 180.359375 17.574219 183.792969 17.574219 187.496094 C 17.574219 191.199219 19.25 194.644531 22.160156 196.9375 L 117.3125 271.792969 C 119.40625 273.445312 122.046875 274.363281 124.730469 274.363281 C 128.449219 274.363281 131.894531 272.683594 134.175781 269.769531 C 136.171875 267.257812 137.046875 264.113281 136.671875 260.925781 C 136.285156 257.742188 134.691406 254.882812 132.167969 252.902344 L 49.03125 187.496094 L 132.167969 122.085938 C 134.691406 120.089844 136.285156 117.25 136.671875 114.0625 C 137.046875 110.875 136.171875 107.730469 134.175781 105.207031 C 131.894531 102.292969 128.433594 100.628906 124.730469 100.628906 Z M 124.730469 107.804688 C 126.167969 107.804688 127.585938 108.433594 128.535156 109.640625 C 130.199219 111.75 129.828125 114.792969 127.730469 116.445312 L 37.417969 187.496094 L 127.730469 258.542969 C 129.828125 260.195312 130.199219 263.238281 128.535156 265.335938 C 127.585938 266.554688 126.167969 267.1875 124.730469 267.1875 C 123.683594 267.1875 122.636719 266.855469 121.746094 266.152344 L 26.597656 191.296875 C 25.433594 190.378906 24.75 188.972656 24.75 187.496094 C 24.75 186.003906 25.433594 184.609375 26.597656 183.691406 L 121.746094 108.835938 C 122.621094 108.132812 123.683594 107.804688 124.730469 107.804688 " fill-opacity="1" fill-rule="nonzero"/></g><path fill="#03fa6e" d="M 250.269531 270.773438 C 247.667969 270.773438 245.257812 269.597656 243.636719 267.558594 C 240.765625 263.914062 241.398438 258.601562 245.058594 255.71875 L 331.78125 187.496094 L 245.058594 119.257812 C 241.398438 116.386719 240.765625 111.078125 243.636719 107.429688 C 245.257812 105.378906 247.667969 104.214844 250.269531 104.214844 C 252.148438 104.214844 254 104.847656 255.476562 106.023438 L 350.628906 180.863281 C 352.664062 182.484375 353.828125 184.898438 353.828125 187.496094 C 353.828125 190.09375 352.664062 192.503906 350.613281 194.113281 L 255.476562 268.964844 C 254 270.140625 252.148438 270.773438 250.269531 270.773438 " fill-opacity="1" fill-rule="nonzero"/><g clip-path="url(#d81031318a)"><path fill="#03fa6e" d="M 250.269531 100.628906 C 246.5625 100.628906 243.121094 102.292969 240.824219 105.207031 C 236.71875 110.417969 237.621094 117.980469 242.832031 122.085938 L 325.96875 187.496094 L 242.832031 252.902344 C 237.621094 256.996094 236.71875 264.574219 240.824219 269.769531 C 243.121094 272.683594 246.5625 274.363281 250.269531 274.363281 C 252.953125 274.363281 255.578125 273.445312 257.6875 271.792969 L 352.839844 196.9375 C 355.75 194.644531 357.417969 191.199219 357.417969 187.496094 C 357.417969 183.792969 355.75 180.359375 352.851562 178.050781 L 257.703125 103.195312 C 255.59375 101.53125 252.953125 100.628906 250.269531 100.628906 Z M 250.269531 107.804688 C 251.316406 107.804688 252.378906 108.132812 253.253906 108.835938 L 348.402344 183.691406 C 349.566406 184.609375 350.238281 186.003906 350.238281 187.496094 C 350.238281 188.972656 349.566406 190.378906 348.402344 191.296875 L 253.253906 266.152344 C 252.378906 266.855469 251.316406 267.1875 250.269531 267.1875 C 248.832031 267.1875 247.410156 266.554688 246.464844 265.335938 C 244.8125 263.238281 245.171875 260.195312 247.269531 258.542969 L 337.582031 187.496094 L 247.269531 116.445312 C 245.171875 114.792969 244.8125 111.75 246.464844 109.640625 C 247.410156 108.433594 248.847656 107.804688 250.269531 107.804688 " fill-opacity="1" fill-rule="nonzero"/></g><path fill="#03fa6e" d="M 140.21875 315.945312 C 139.171875 315.945312 138.152344 315.742188 137.175781 315.371094 C 135.082031 314.550781 133.414062 312.972656 132.511719 310.921875 C 131.59375 308.855469 131.550781 306.570312 132.351562 304.476562 L 225.277344 64.425781 C 226.527344 61.210938 229.683594 59.042969 233.128906 59.042969 C 234.175781 59.042969 235.210938 59.246094 236.1875 59.617188 C 240.507812 61.296875 242.675781 66.191406 240.996094 70.527344 L 148.085938 310.5625 C 146.835938 313.777344 143.664062 315.945312 140.21875 315.945312 " fill-opacity="1" fill-rule="nonzero"/><g clip-path="url(#0f9a759fc1)"><path fill="#03fa6e" d="M 233.128906 55.457031 C 228.207031 55.457031 223.699219 58.558594 221.933594 63.136719 L 129.007812 303.171875 C 127.859375 306.171875 127.933594 309.429688 129.222656 312.371094 C 130.53125 315.296875 132.882812 317.566406 135.882812 318.714844 C 137.277344 319.261719 138.726562 319.53125 140.21875 319.53125 C 145.140625 319.53125 149.648438 316.445312 151.429688 311.855469 L 244.339844 71.820312 C 246.738281 65.632812 243.652344 58.65625 237.464844 56.273438 C 236.085938 55.730469 234.621094 55.457031 233.128906 55.457031 Z M 233.128906 62.632812 C 233.71875 62.632812 234.304688 62.746094 234.878906 62.964844 C 237.378906 63.925781 238.613281 66.722656 237.652344 69.222656 L 144.726562 309.257812 C 143.992188 311.179688 142.15625 312.355469 140.21875 312.355469 C 139.628906 312.355469 139.042969 312.253906 138.46875 312.027344 C 135.96875 311.066406 134.734375 308.25 135.710938 305.769531 L 228.621094 65.734375 C 229.367188 63.808594 231.191406 62.632812 233.128906 62.632812 " fill-opacity="1" fill-rule="nonzero"/></g></svg>